HIERARCHY
ROOT Hips
{
	OFFSET 0.000000 121.760803 0.000000
	CHANNELS 6 Xposition Yposition Zposition Xrotation Yrotation Zrotation 
	JOINT Spine
	{
		OFFSET 0.072000 7.257294 -0.789700
		CHANNELS 3 Xrotation Yrotation Zrotation
		JOINT Spine1
		{
			OFFSET 0.000000 12.508769 -0.658067
			CHANNELS 3 Xrotation Yrotation Zrotation
			JOINT Spine1_split
			{
				OFFSET 0.000000 12.508769 -0.658067
				CHANNELS 3 Xrotation Yrotation Zrotation
				JOINT Spine2
				{
					OFFSET 0.000000 12.508769 -0.658067
					CHANNELS 3 Xrotation Yrotation Zrotation
					JOINT Neck
					{
						OFFSET 0.000000 14.033295 7.520400
						CHANNELS 3 Xrotation Yrotation Zrotation
						JOINT Head
						{
							OFFSET 0.000000 8.198502 5.703100
							CHANNELS 3 Xrotation Yrotation Zrotation
							JOINT HeadTop_End
							{
								OFFSET 0.000000 17.760803 13.332701
								CHANNELS 3 Xrotation Yrotation Zrotation
								End Site
								{
									OFFSET 0.000000 0.000000 0.000000
								}
							}
						}
					}
					JOINT LeftShoulder
					{
						OFFSET 6.292450 5.785301 -0.669000
						CHANNELS 3 Xrotation Yrotation Zrotation
						JOINT LeftShoulder_split
						{
							OFFSET 6.292450 5.785301 -0.669000
							CHANNELS 3 Xrotation Yrotation Zrotation
							JOINT LeftArm
							{
								OFFSET 13.907140 -6.093903 1.965100
								CHANNELS 3 Xrotation Yrotation Zrotation
								JOINT LeftForeArm
								{
									OFFSET 34.140198 0.000000 0.000000
									CHANNELS 3 Xrotation Yrotation Zrotation
									JOINT LeftHand
									{
										OFFSET 40.960209 0.000000 0.000000
										CHANNELS 3 Xrotation Yrotation Zrotation
										JOINT LeftHandThumb1
										{
											OFFSET 10.006996 -7.170425 9.573125
											CHANNELS 3 Xrotation Yrotation Zrotation
											JOINT LeftHandThumb2
											{
												OFFSET 1.835007 -1.059448 1.059443
												CHANNELS 3 Xrotation Yrotation Zrotation
												JOINT LeftHandThumb3
												{
													OFFSET 2.112267 -1.219513 1.219518
													CHANNELS 3 Xrotation Yrotation Zrotation
													JOINT LeftHandThumb4
													{
														OFFSET 4.843811 -2.796570 2.796576
														CHANNELS 3 Xrotation Yrotation Zrotation
														End Site
														{
															OFFSET 0.000000 0.000000 0.000000
														}
													}
												}
											}
										}
										JOINT LeftHandIndex1
										{
											OFFSET 18.389847 -0.922348 4.596882
											CHANNELS 3 Xrotation Yrotation Zrotation
											JOINT LeftHandIndex2
											{
												OFFSET 4.711273 0.000000 0.000000
												CHANNELS 3 Xrotation Yrotation Zrotation
												JOINT LeftHandIndex3
												{
													OFFSET 2.886131 0.000000 0.000000
													CHANNELS 3 Xrotation Yrotation Zrotation
													JOINT LeftHandIndex4
													{
														OFFSET 6.145912 0.000000 0.000000
														CHANNELS 3 Xrotation Yrotation Zrotation
														End Site
														{
															OFFSET 0.000000 0.000000 0.000000
														}
													}
												}
											}
										}
										JOINT LeftHandMiddle1
										{
											OFFSET 18.013008 0.000000 0.000000
											CHANNELS 3 Xrotation Yrotation Zrotation
											JOINT LeftHandMiddle2
											{
												OFFSET 4.946693 0.000000 0.000000
												CHANNELS 3 Xrotation Yrotation Zrotation
												JOINT LeftHandMiddle3
												{
													OFFSET 3.342232 0.000000 0.000000
													CHANNELS 3 Xrotation Yrotation Zrotation
													JOINT LeftHandMiddle4
													{
														OFFSET 4.461754 0.000000 0.000000
														CHANNELS 3 Xrotation Yrotation Zrotation
														End Site
														{
															OFFSET 0.000000 0.000000 0.000000
														}
													}
												}
											}
										}
										JOINT LeftHandRing1
										{
											OFFSET 15.849892 -0.102921 -4.126150
											CHANNELS 3 Xrotation Yrotation Zrotation
											JOINT LeftHandRing2
											{
												OFFSET 3.527054 0.000000 0.000000
												CHANNELS 3 Xrotation Yrotation Zrotation
												JOINT LeftHandRing3
												{
													OFFSET 2.961098 0.000000 0.000000
													CHANNELS 3 Xrotation Yrotation Zrotation
													JOINT LeftHandRing4
													{
														OFFSET 4.927200 0.000000 0.000000
														CHANNELS 3 Xrotation Yrotation Zrotation
														End Site
														{
															OFFSET 0.000000 0.000000 0.000000
														}
													}
												}
											}
										}
										JOINT LeftHandPinky1
										{
											OFFSET 12.791824 -0.832031 -6.799156
											CHANNELS 3 Xrotation Yrotation Zrotation
											JOINT LeftHandPinky2
											{
												OFFSET 3.327133 0.000000 0.000000
												CHANNELS 3 Xrotation Yrotation Zrotation
												JOINT LeftHandPinky3
												{
													OFFSET 3.014900 0.000000 0.000000
													CHANNELS 3 Xrotation Yrotation Zrotation
													JOINT LeftHandPinky4
													{
														OFFSET 5.847786 0.000000 0.000000
														CHANNELS 3 Xrotation Yrotation Zrotation
														End Site
														{
															OFFSET 0.000000 0.000000 0.000000
														}
													}
												}
											}
										}
									}
								}
							}
						}
					}
					JOINT RightShoulder
					{
						OFFSET -6.292450 5.785301 -0.669000
						CHANNELS 3 Xrotation Yrotation Zrotation
						JOINT RightShoulder_split
						{
							OFFSET -6.292450 5.785301 -0.669000
							CHANNELS 3 Xrotation Yrotation Zrotation
							JOINT RightArm
							{
								OFFSET -13.907140 -6.093903 1.965100
								CHANNELS 3 Xrotation Yrotation Zrotation
								JOINT RightForeArm
								{
									OFFSET -34.140198 0.000000 0.000000
									CHANNELS 3 Xrotation Yrotation Zrotation
									JOINT RightHand
									{
										OFFSET -40.960209 0.000000 0.000000
										CHANNELS 3 Xrotation Yrotation Zrotation
										JOINT RightHandThumb1
										{
											OFFSET -10.007050 -7.170456 9.573117
											CHANNELS 3 Xrotation Yrotation Zrotation
											JOINT RightHandThumb2
											{
												OFFSET -1.835007 -1.059448 1.059443
												CHANNELS 3 Xrotation Yrotation Zrotation
												JOINT RightHandThumb3
												{
													OFFSET -2.112267 -1.219513 1.219518
													CHANNELS 3 Xrotation Yrotation Zrotation
													JOINT RightHandThumb4
													{
														OFFSET -4.843834 -2.796585 2.796590
														CHANNELS 3 Xrotation Yrotation Zrotation
														End Site
														{
															OFFSET 0.000000 0.000000 0.000000
														}
													}
												}
											}
										}
										JOINT RightHandIndex1
										{
											OFFSET -18.389870 -0.922424 4.596786
											CHANNELS 3 Xrotation Yrotation Zrotation
											JOINT RightHandIndex2
											{
												OFFSET -4.711273 0.000000 0.000000
												CHANNELS 3 Xrotation Yrotation Zrotation
												JOINT RightHandIndex3
												{
													OFFSET -2.886131 0.000000 0.000000
													CHANNELS 3 Xrotation Yrotation Zrotation
													JOINT RightHandIndex4
													{
														OFFSET -6.145920 0.000000 0.000000
														CHANNELS 3 Xrotation Yrotation Zrotation
														End Site
														{
															OFFSET 0.000000 0.000000 0.000000
														}
													}
												}
											}
										}
										JOINT RightHandMiddle1
										{
											OFFSET -18.013008 0.000000 0.000000
											CHANNELS 3 Xrotation Yrotation Zrotation
											JOINT RightHandMiddle2
											{
												OFFSET -4.946693 0.000000 0.000000
												CHANNELS 3 Xrotation Yrotation Zrotation
												JOINT RightHandMiddle3
												{
													OFFSET -3.342232 0.000000 0.000000
													CHANNELS 3 Xrotation Yrotation Zrotation
													JOINT RightHandMiddle4
													{
														OFFSET -4.461754 0.000000 0.000000
														CHANNELS 3 Xrotation Yrotation Zrotation
														End Site
														{
															OFFSET 0.000000 0.000000 0.000000
														}
													}
												}
											}
										}
										JOINT RightHandRing1
										{
											OFFSET -15.849876 -0.102936 -4.126237
											CHANNELS 3 Xrotation Yrotation Zrotation
											JOINT RightHandRing2
											{
												OFFSET -3.527054 0.000000 0.000000
												CHANNELS 3 Xrotation Yrotation Zrotation
												JOINT RightHandRing3
												{
													OFFSET -2.961098 0.000000 0.000000
													CHANNELS 3 Xrotation Yrotation Zrotation
													JOINT RightHandRing4
													{
														OFFSET -4.927200 0.000000 0.000000
														CHANNELS 3 Xrotation Yrotation Zrotation
														End Site
														{
															OFFSET 0.000000 0.000000 0.000000
														}
													}
												}
											}
										}
										JOINT RightHandPinky1
										{
											OFFSET -12.791786 -0.832077 -6.799222
											CHANNELS 3 Xrotation Yrotation Zrotation
											JOINT RightHandPinky2
											{
												OFFSET -3.327133 0.000000 0.000000
												CHANNELS 3 Xrotation Yrotation Zrotation
												JOINT RightHandPinky3
												{
													OFFSET -3.014900 0.000000 0.000000
													CHANNELS 3 Xrotation Yrotation Zrotation
													JOINT RightHandPinky4
													{
														OFFSET -5.847786 0.000000 0.000000
														CHANNELS 3 Xrotation Yrotation Zrotation
														End Site
														{
															OFFSET 0.000000 0.000000 0.000000
														}
													}
												}
											}
										}
									}
								}
							}
						}
					}
				}
			}
		}
	}
	JOINT LeftUpLeg
	{
		OFFSET 13.026900 -6.336304 -1.092800
		CHANNELS 3 Xrotation Yrotation Zrotation
		JOINT LeftLeg
		{
			OFFSET 0.524474 -46.096886 9.782700
			CHANNELS 3 Xrotation Yrotation Zrotation
			JOINT LeftFoot
			{
				OFFSET -0.524474 -53.427422 -12.948200
				CHANNELS 3 Xrotation Yrotation Zrotation
				JOINT LeftToeBase
				{
					OFFSET 0.192200 -14.009700 16.364100
					CHANNELS 3 Xrotation Yrotation Zrotation
					JOINT LeftToe_End
					{
						OFFSET -1.784700 -0.561700 9.474800
						CHANNELS 3 Xrotation Yrotation Zrotation
						End Site
						{
							OFFSET 0.000000 0.000000 0.000000
						}
					}
				}
			}
		}
	}
	JOINT RightUpLeg
	{
		OFFSET -12.883000 -6.336304 -1.092800
		CHANNELS 3 Xrotation Yrotation Zrotation
		JOINT RightLeg
		{
			OFFSET -0.524587 -46.096825 9.782800
			CHANNELS 3 Xrotation Yrotation Zrotation
			JOINT RightFoot
			{
				OFFSET 0.524587 -53.427383 -12.948300
				CHANNELS 3 Xrotation Yrotation Zrotation
				JOINT RightToeBase
				{
					OFFSET -0.192200 -14.009700 16.364100
					CHANNELS 3 Xrotation Yrotation Zrotation
					JOINT RightToe_End
					{
						OFFSET 1.784700 -0.561700 9.474800
						CHANNELS 3 Xrotation Yrotation Zrotation
						End Site
						{
							OFFSET 0.000000 0.000000 0.000000
						}
					}
				}
			}
		}
	}
}
MOTION
Frames: 5
Frame Time: 0.016667
-0.568210 96.015465 0.666725 8.148051 -11.194228 3.440420 8.217772 1.910700 -1.854759 6.501517 1.669130 -0.600553 0.000000 0.000000 0.000000 6.503123 1.665277 -0.587177 -1.740215 -0.081393 0.346733 -18.113892 -0.499811 1.304438 0.000001 0.000000 -0.000000 2.609678 -14.773713 -9.661128 0.000000 0.000000 0.000000 -25.061853 -6.032399 -45.944982 0.000022 -124.725716 0.000024 -67.570317 18.900137 22.799791 39.578723 -17.197335 -21.086425 11.236015 23.988434 2.901700 3.118799 9.521007 4.222323 0.000002 0.000002 0.000000 3.600011 6.051853 -61.463486 4.128158 6.308909 -66.366182 1.118809 3.767447 -33.069310 0.000000 0.000000 -0.000001 2.451420 5.270993 -49.859927 3.793766 6.152679 -63.285944 1.517083 4.316417 -38.714837 0.000002 0.000000 -0.000001 2.452892 5.272241 -49.876060 3.792042 6.151802 -63.269798 1.517079 4.316418 -38.714844 0.000002 0.000000 0.000000 7.187306 7.991516 -61.391776 4.144321 2.228349 -66.583211 1.118816 3.767474 -33.069307 0.000000 0.000001 0.000000 1.602763 8.845882 9.965477 0.000000 0.000000 0.000000 3.934432 4.254978 41.144377 0.009130 89.361783 -0.009062 32.702037 19.603364 -22.590429 29.376442 16.962633 20.541331 9.559521 -25.704488 -5.659321 1.488511 -8.233518 -5.339834 -0.000001 -0.000000 -0.000000 2.155494 -5.036556 46.317152 4.033401 -6.309979 65.142888 1.089720 -3.742294 32.460245 -0.000001 -0.000001 -0.000001 1.448244 -4.252504 37.599693 3.476827 -6.022574 59.964785 1.448456 -4.252769 37.602886 -0.000003 -0.000000 0.000002 1.448237 -4.252497 37.599696 3.476829 -6.022591 59.964785 1.448464 -4.252778 37.602896 0.000001 0.000001 0.000001 2.155501 -5.036552 46.317149 4.033393 -6.309977 65.142902 1.089722 -3.742294 32.460245 0.000003 -0.000001 -0.000002 -55.244021 3.218716 21.887848 47.224430 2.888996 5.930800 3.145670 0.861576 -19.945535 0.000005 -0.000006 -0.000010 0.000000 -0.000000 -0.000000 -34.769641 2.497747 -30.502348 50.344573 -0.228809 -1.348689 -17.242654 -5.768057 25.970497 -0.002746 -0.000005 0.000002 0.000000 -0.000003 -0.000000 
-0.475782 96.104477 0.746119 8.174165 -11.177803 3.357661 8.194194 1.907010 -1.866350 6.485270 1.665928 -0.610207 0.000000 0.000000 0.000000 6.486865 1.662228 -0.596724 -1.712115 -0.092269 0.384982 -18.110400 -0.529394 1.344543 0.000001 -0.000000 -0.000000 2.607218 -14.764980 -9.614780 0.000000 0.000000 0.000000 -25.050245 -6.005737 -46.040891 0.000022 -124.877004 0.000024 -67.329655 18.877828 22.729323 39.578723 -17.197335 -21.086423 11.236013 23.988430 2.901698 3.118802 9.521009 4.222330 0.000001 0.000003 -0.000001 3.600016 6.051851 -61.463486 4.128155 6.308909 -66.366175 1.118809 3.767447 -33.069310 -0.000001 -0.000000 0.000000 2.451424 5.270995 -49.859927 3.793768 6.152675 -63.285944 1.517084 4.316414 -38.714844 0.000002 0.000000 0.000000 2.452894 5.272244 -49.876056 3.792045 6.151800 -63.269798 1.517079 4.316419 -38.714844 -0.000001 -0.000002 0.000001 7.187308 7.991513 -61.391776 4.144319 2.228347 -66.583211 1.118816 3.767474 -33.069307 0.000001 0.000001 -0.000000 1.606110 8.884876 9.946592 0.000000 0.000000 0.000000 4.076250 4.257997 41.187653 0.011831 89.427312 -0.012319 32.911854 19.509604 -22.720512 29.376442 16.962635 20.541338 9.559521 -25.704486 -5.659323 1.488511 -8.233519 -5.339833 0.000003 0.000000 0.000000 2.155494 -5.036558 46.317155 4.033406 -6.309981 65.142895 1.089722 -3.742292 32.460245 -0.000000 -0.000000 -0.000000 1.448244 -4.252504 37.599693 3.476831 -6.022575 59.964785 1.448456 -4.252769 37.602889 0.000000 -0.000000 -0.000001 1.448240 -4.252498 37.599696 3.476834 -6.022594 59.964778 1.448464 -4.252774 37.602896 0.000002 0.000001 0.000002 2.155505 -5.036554 46.317145 4.033395 -6.309979 65.142902 1.089723 -3.742299 32.460245 -0.000000 0.000001 0.000002 -55.249984 3.274781 21.854578 47.198707 2.905579 6.009302 3.102124 0.861805 -19.892555 0.000118 0.000000 -0.000006 0.000000 0.000000 0.000000 -34.612605 2.420009 -30.483155 50.087642 -0.271720 -1.307367 -17.113939 -5.752681 26.032578 -0.028714 0.000015 -0.000000 0.000000 0.000002 0.000000 
-0.388973 96.159531 0.815184 8.232668 -11.184952 3.267794 8.171048 1.907772 -1.883428 6.469516 1.666599 -0.622082 0.000000 0.000000 0.000000 6.471169 1.662710 -0.608367 -1.660627 -0.094397 0.408574 -18.088764 -0.528535 1.378605 -0.000000 0.000001 -0.000000 2.606491 -14.776935 -9.549424 0.000000 0.000000 0.000000 -25.079263 -5.936106 -46.237457 0.000046 -124.947601 0.000055 -67.140398 18.934374 22.684766 39.578720 -17.197332 -21.086423 11.236013 23.988435 2.901697 3.118804 9.521010 4.222326 0.000000 0.000001 0.000006 3.600020 6.051850 -61.463479 4.128155 6.308909 -66.366175 1.118808 3.767444 -33.069307 0.000001 0.000000 0.000000 2.451423 5.270994 -49.859923 3.793767 6.152673 -63.285944 1.517082 4.316415 -38.714844 0.000001 -0.000000 -0.000000 2.452896 5.272241 -49.876049 3.792044 6.151802 -63.269791 1.517081 4.316418 -38.714844 -0.000001 0.000001 -0.000000 7.187309 7.991514 -61.391769 4.144320 2.228347 -66.583211 1.118816 3.767476 -33.069300 0.000000 -0.000000 -0.000001 1.612936 8.972300 9.892410 0.000000 0.000000 0.000000 4.280589 4.276509 41.166616 0.010412 89.494241 -0.010467 33.037509 19.369489 -22.853903 29.376442 16.962630 20.541331 9.559521 -25.704486 -5.659325 1.488512 -8.233520 -5.339835 0.000001 -0.000001 -0.000001 2.155496 -5.036558 46.317152 4.033403 -6.309978 65.142888 1.089719 -3.742295 32.460245 0.000000 -0.000001 -0.000002 1.448250 -4.252504 37.599696 3.476830 -6.022577 59.964785 1.448458 -4.252766 37.602889 0.000001 -0.000001 -0.000002 1.448241 -4.252497 37.599696 3.476832 -6.022588 59.964778 1.448463 -4.252775 37.602896 0.000001 0.000001 0.000001 2.155504 -5.036552 46.317149 4.033396 -6.309978 65.142888 1.089721 -3.742297 32.460249 -0.000002 0.000001 0.000004 -55.304991 3.256253 21.866955 47.228053 2.961271 6.041339 3.057458 0.864245 -19.851363 0.000078 -0.000001 0.000001 -0.000000 0.000000 -0.000000 -34.566016 2.308949 -30.439674 49.887586 -0.243830 -1.308653 -16.998328 -5.737621 26.083292 -0.059022 -0.000004 -0.000008 0.000000 0.000001 0.000000 
-0.310075 96.189377 0.876944 8.280623 -11.217054 3.208440 8.149205 1.911529 -1.903046 6.454653 1.669948 -0.635075 0.000000 0.000000 0.000000 6.456425 1.665762 -0.621081 -1.598634 -0.092580 0.422500 -18.056068 -0.517752 1.411531 -0.000000 0.000000 -0.000000 2.606927 -14.801047 -9.475216 0.000000 0.000000 0.000000 -25.130221 -5.847827 -46.486418 -0.000021 -124.971261 -0.000023 -66.982012 19.038358 22.658753 39.578720 -17.197335 -21.086421 11.236013 23.988430 2.901694 3.118798 9.521008 4.222322 -0.000001 0.000002 0.000001 3.600009 6.051854 -61.463479 4.128154 6.308907 -66.366182 1.118810 3.767446 -33.069314 -0.000001 -0.000001 -0.000002 2.451420 5.270995 -49.859930 3.793768 6.152678 -63.285951 1.517085 4.316414 -38.714837 -0.000002 -0.000000 0.000001 2.452891 5.272242 -49.876049 3.792041 6.151804 -63.269798 1.517079 4.316419 -38.714844 -0.000000 -0.000000 -0.000000 7.187306 7.991514 -61.391769 4.144323 2.228348 -66.583211 1.118816 3.767474 -33.069303 -0.000001 -0.000000 0.000001 1.621840 9.085369 9.820732 0.000000 0.000000 0.000000 4.518109 4.299213 41.105216 0.023773 89.562693 -0.023514 33.107201 19.210769 -22.984637 29.376446 16.962631 20.541333 9.559523 -25.704486 -5.659321 1.488511 -8.233518 -5.339833 -0.000000 -0.000000 -0.000001 2.155496 -5.036558 46.317149 4.033402 -6.309979 65.142895 1.089721 -3.742294 32.460252 -0.000003 0.000000 0.000002 1.448244 -4.252503 37.599696 3.476829 -6.022578 59.964785 1.448458 -4.252771 37.602886 -0.000000 -0.000000 0.000000 1.448240 -4.252498 37.599700 3.476827 -6.022590 59.964785 1.448464 -4.252778 37.602896 0.000001 0.000001 -0.000001 2.155507 -5.036553 46.317149 4.033396 -6.309981 65.142895 1.089724 -3.742292 32.460249 -0.000003 -0.000001 -0.000000 -55.319942 3.168678 21.893914 47.285686 3.049457 5.998239 2.995803 0.871520 -19.830894 0.000059 0.000007 0.000008 -0.000000 -0.000000 -0.000000 -34.543525 2.249942 -30.412278 49.743971 -0.201811 -1.313617 -16.904778 -5.727316 26.132097 -0.085860 -0.000001 -0.000005 0.000000 0.000002 0.000000 
-0.237862 96.194046 0.938587 8.279934 -11.275702 3.162116 8.130201 1.919629 -1.924538 6.441681 1.676749 -0.649059 0.000000 0.000000 0.000000 6.443582 1.672274 -0.634775 -1.530192 -0.088176 0.425716 -18.010335 -0.506130 1.446724 0.000001 -0.000000 -0.000000 2.608809 -14.838618 -9.394288 0.000000 0.000000 0.000000 -25.202298 -5.748873 -46.782243 -0.000030 -124.946276 -0.000033 -66.856432 19.194310 22.657850 39.578723 -17.197334 -21.086421 11.236013 23.988434 2.901689 3.118803 9.521011 4.222322 0.000001 -0.000001 0.000001 3.600012 6.051853 -61.463486 4.128155 6.308908 -66.366175 1.118810 3.767447 -33.069314 -0.000001 0.000000 -0.000001 2.451423 5.270993 -49.859927 3.793770 6.152679 -63.285937 1.517083 4.316416 -38.714841 -0.000001 0.000000 0.000001 2.452889 5.272243 -49.876060 3.792047 6.151804 -63.269798 1.517077 4.316417 -38.714844 -0.000001 0.000001 -0.000000 7.187306 7.991514 -61.391769 4.144321 2.228351 -66.583211 1.118817 3.767475 -33.069303 0.000000 0.000000 0.000000 1.632841 9.221984 9.735138 0.000000 0.000000 0.000000 4.785609 4.318988 40.998391 0.013728 89.635195 -0.013303 33.108393 19.043990 -23.106217 29.376446 16.962631 20.541333 9.559519 -25.704485 -5.659327 1.488512 -8.233518 -5.339836 -0.000001 0.000000 -0.000000 2.155495 -5.036558 46.317155 4.033403 -6.309975 65.142895 1.089723 -3.742293 32.460245 0.000000 -0.000001 -0.000000 1.448244 -4.252503 37.599689 3.476832 -6.022582 59.964785 1.448455 -4.252771 37.602889 0.000001 0.000001 -0.000000 1.448235 -4.252496 37.599693 3.476828 -6.022591 59.964785 1.448463 -4.252772 37.602896 0.000003 0.000002 0.000000 2.155500 -5.036551 46.317149 4.033397 -6.309979 65.142902 1.089723 -3.742291 32.460249 -0.000001 0.000001 0.000001 -55.276782 3.034651 21.937398 47.386514 3.182694 5.909482 2.919473 0.883202 -19.827448 0.000074 0.000002 0.000003 -0.000000 0.000000 -0.000000 -34.489880 2.243694 -30.406998 49.651398 -0.152333 -1.296722 -16.844218 -5.725259 26.178872 -0.101895 0.000002 -0.000003 0.000000 -0.000002 -0.000000 
